<?xml version="1.0" encoding="utf-8"?>
<!-- Generator: Adobe Illustrator 24.1.1, SVG Export Plug-In . SVG Version: 6.00 Build 0)  -->
<svg version="1.1" xmlns="http://www.w3.org/2000/svg" xmlns:xlink="http://www.w3.org/1999/xlink" x="0px" y="0px"
	 viewBox="0 0 2108.4 459.8" style="enable-background:new 0 0 2108.4 459.8;" xml:space="preserve">
<style type="text/css">
	.st0{fill:#FF9920;}
	.st1{fill:#FFFFFF;}
	.st2{display:none;fill:#172B4C;}
	.st3{fill:none;}
	.st4{fill:#172B4C;}
</style>
<g id="Capa_1">
	<g id="Capa_1_1_">
		<g>
			<g>
				<path class="st0" d="M-6928.9,495.8h-112.5l-125.5-310.9h-1.6v310.9h-103.4V2.2h116.4l123.5,306.2h2V2.2h101L-6928.9,495.8
					L-6928.9,495.8z"/>
				<path class="st0" d="M-6065.4,3h107.4l-138.9,492.8h-101.8L-6339.5,3h112.4l79.2,317.4L-6065.4,3z"/>
				<path class="st0" d="M-5627.1,495.8h-104.1l-16.4-76.9h-129.8l-17.9,76.9h-104.2L-5858.7,3h108.1L-5627.1,495.8z M-5762.8,339.1
					l-43.4-215.6l-1.6,0l-50.1,215.6H-5762.8z"/>
			</g>
			<g>
				<circle class="st0" cx="-6610.5" cy="249" r="247.5"/>
				<circle class="st1" cx="-6518.1" cy="123.4" r="58.5"/>
			</g>
		</g>
	</g>
	<g id="Capa_2_1_">
		<rect x="-5469.5" y="-291" class="st2" width="1920" height="1080"/>
		<g>
			<g>
				<g>
					<path class="st0" d="M-4857.9,243.7h-18.5c-13.7,0-26-8.3-31.1-21l-74.7-185.1c-0.1-0.2-0.3-0.4-0.6-0.4l0,0
						c-0.3,0-0.6,0.3-0.6,0.6v172.4c0,18.5-15,33.6-33.5,33.6h-1.6c-18.5,0-33.5-15-33.5-33.6V-50.6c0-18.5,15-33.6,33.5-33.6h21.1
						c13.7,0,26,8.3,31.1,21l73.4,182c0.1,0.2,0.3,0.4,0.6,0.4h0.3c0.4,0,0.6-0.3,0.6-0.6V-50.6c0-18.5,15-33.6,33.5-33.6l0,0
						c18.5,0,33.6,15,33.6,33.5v260.8C-4824.4,228.7-4839.4,243.7-4857.9,243.7z"/>
					<path class="st0" d="M-4224.4-83.6L-4224.4-83.6c22.6,0,38.9,21.6,32.8,43.3l-73.1,259.2c-4.1,14.7-17.5,24.8-32.8,24.8h-16.1
						c-15.2,0-28.6-10.1-32.8-24.7l-74.1-259.2c-6.2-21.8,10.1-43.4,32.8-43.4h2.9c15.6,0,29.3,10.6,33.1,25.8l13.8,55.3
						c8.6,34.3,57.1,34.5,66,0.3l14.5-55.9C-4253.5-73.2-4239.9-83.6-4224.4-83.6z"/>
					<path class="st0" d="M-3992.3,243.7h-15.9c-12,0-22.4-8.4-24.9-20.2l-2.3-10.8c-2.5-11.8-12.9-20.2-24.9-20.2h-45.4
						c-11.8,0-22.1,8.2-24.8,19.7l-2.7,11.7c-2.7,11.5-13,19.7-24.8,19.7h-15.2c-16.9,0-29.2-16.2-24.5-32.5l79-276.4
						c3.1-10.9,13.1-18.5,24.5-18.5h32.7c11.7,0,21.9,7.9,24.7,19.3l69.3,276.4C-3963.5,228.1-3975.7,243.7-3992.3,243.7z
						 M-4055.9,109.1L-4078.5-3c-0.1-0.3-0.3-0.5-0.7-0.5l0,0c-0.3,0-0.6,0.2-0.7,0.5l-25.9,111.4c-3.7,16,8.4,31.3,24.8,31.3l0,0
						C-4064.8,139.7-4052.7,124.9-4055.9,109.1z"/>
				</g>
				<g>
					<circle class="st0" cx="-4612.8" cy="79.8" r="164.4"/>
					
						<ellipse transform="matrix(0.7071 -0.7071 0.7071 0.7071 -1332.7607 -3218.4893)" class="st1" cx="-4551.4" cy="-0.5" rx="41.1" ry="41.1"/>
				</g>
			</g>
			<rect x="-5000.5" y="304.6" class="st3" width="982" height="278"/>
			
				<text transform="matrix(1 0 0 1 -4740.3828 497.2635)" class="st1" style="font-family:'MonotypeCorsiva'; font-size:280px; letter-spacing:14;">Soft</text>
			
				<text transform="matrix(1 0 0 1 -4740.3828 497.2635)" style="fill:none;stroke:#FFFFFF;stroke-width:10;stroke-miterlimit:10; font-family:'MonotypeCorsiva'; font-size:280px; letter-spacing:14;">Soft</text>
		</g>
	</g>
	<g id="Capa_4">
		<g>
			<g>
				<g>
					<path class="st0" d="M-977.9,243.7h-18.5c-13.7,0-26-8.3-31.1-21l-74.7-185.1c-0.1-0.2-0.3-0.4-0.6-0.4l0,0
						c-0.4,0-0.6,0.3-0.6,0.6v172.4c0,18.5-15,33.6-33.6,33.6h-1.6c-18.5,0-33.6-15-33.6-33.6V-50.6c0-18.5,15-33.6,33.6-33.6h21.1
						c13.7,0,26,8.3,31.1,21l73.4,182c0.1,0.2,0.3,0.4,0.6,0.4h0.3c0.4,0,0.6-0.3,0.6-0.6V-50.6c0-18.5,15-33.6,33.6-33.6l0,0
						c18.5,0,33.6,15,33.6,33.5v260.8C-944.4,228.7-959.4,243.7-977.9,243.7z"/>
					<path class="st0" d="M-344.4-83.6L-344.4-83.6c22.6,0,38.9,21.6,32.8,43.3l-73.1,259.2c-4.1,14.7-17.5,24.8-32.8,24.8h-16.1
						c-15.2,0-28.6-10.1-32.8-24.7l-74.1-259.2c-6.2-21.8,10.1-43.4,32.8-43.4h2.9c15.6,0,29.3,10.6,33.1,25.8l13.8,55.3
						c8.6,34.3,57.1,34.5,66,0.3l14.5-55.9C-373.5-73.2-359.9-83.6-344.4-83.6z"/>
					<path class="st0" d="M-112.3,243.7h-15.9c-12,0-22.4-8.4-24.9-20.2l-2.3-10.8c-2.5-11.8-12.9-20.2-24.9-20.2h-45.4
						c-11.9,0-22.1,8.2-24.8,19.7l-2.7,11.7c-2.7,11.5-13,19.7-24.8,19.7h-15.2c-16.9,0-29.2-16.2-24.5-32.5l79-276.4
						c3.1-10.9,13.1-18.5,24.5-18.5h32.7c11.7,0,21.9,7.9,24.7,19.3L-87.6,212C-83.5,228.1-95.7,243.7-112.3,243.7z M-175.9,109.1
						L-198.5-3c-0.1-0.3-0.3-0.5-0.6-0.5l0,0c-0.3,0-0.6,0.2-0.7,0.5l-25.9,111.4c-3.7,16,8.4,31.3,24.8,31.3l0,0
						C-184.8,139.7-172.7,124.9-175.9,109.1z"/>
				</g>
				<g>
					<circle class="st0" cx="-732.8" cy="79.8" r="164.4"/>
					<circle class="st1" cx="-671.4" cy="-0.5" r="41.1"/>
				</g>
			</g>
			<rect x="-1120.5" y="304.6" class="st3" width="982" height="278"/>
			
				<text transform="matrix(1 0 0 1 -923.3827 497.2635)" class="st4" style="font-family:'MonotypeCorsiva'; font-size:280px; letter-spacing:56;">Soft</text>
			
				<text transform="matrix(1 0 0 1 -923.3827 497.2635)" style="fill:none;stroke:#172B4C;stroke-width:10;stroke-miterlimit:10; font-family:'MonotypeCorsiva'; font-size:280px; letter-spacing:56;">Soft</text>
		</g>
	</g>
	<g id="Capa_5">
		<g>
			<g>
				<g>
					<g>
						<path class="st0" d="M294.8,393.8h-18.5c-13.7,0-26-8.3-31.1-21l-74.7-185.1c-0.1-0.2-0.3-0.4-0.6-0.4l0,0
							c-0.4,0-0.6,0.3-0.6,0.6v172.3c0,18.5-15,33.6-33.6,33.6h-1.6c-18.5,0-33.6-15-33.6-33.6V99.5c0-18.5,15-33.6,33.6-33.6h21.1
							c13.7,0,26,8.3,31.1,21l73.4,182c0.1,0.2,0.3,0.4,0.6,0.4h0.3c0.4,0,0.6-0.3,0.6-0.6V99.5c0-18.5,15-33.6,33.6-33.6l0,0
							c18.5,0,33.6,15,33.6,33.6v260.8C328.4,378.8,313.4,393.8,294.8,393.8z"/>
						<path class="st0" d="M928.4,66.5L928.4,66.5c22.6,0,38.9,21.6,32.8,43.3L888.1,369c-4.1,14.7-17.5,24.8-32.8,24.8h-16.1
							c-15.2,0-28.6-10.1-32.8-24.7l-74.1-259.2c-6.2-21.8,10.1-43.4,32.8-43.4h2.9c15.6,0,29.3,10.6,33.1,25.8l13.8,55.3
							c8.6,34.3,57.1,34.5,66,0.3L895.4,92C899.3,76.9,912.9,66.5,928.4,66.5z"/>
						<path class="st0" d="M1160.5,393.8h-15.9c-12,0-22.4-8.4-24.9-20.2l-2.3-10.8c-2.5-11.8-12.9-20.2-24.9-20.2h-45.4
							c-11.9,0-22.1,8.2-24.8,19.7l-2.7,11.7c-2.7,11.5-13,19.7-24.8,19.7h-15.2c-16.9,0-29.2-16.2-24.5-32.5l79-276.4
							c3.1-10.9,13.1-18.5,24.5-18.5h32.7c11.7,0,21.9,7.9,24.7,19.3l69.3,276.4C1189.2,378.2,1177,393.8,1160.5,393.8z
							 M1096.9,259.2l-22.6-112.1c-0.1-0.3-0.3-0.5-0.6-0.5l0,0c-0.3,0-0.6,0.2-0.7,0.5L1047,258.5c-3.7,16,8.4,31.3,24.8,31.3l0,0
							C1088,289.8,1100,275,1096.9,259.2z"/>
					</g>
					<g>
						<circle class="st0" cx="539.9" cy="229.9" r="164.4"/>
						<circle class="st1" cx="601.3" cy="149.6" r="41.1"/>
					</g>
				</g>
				<g>
					<g>
						<path class="st4" d="M1393.7,364.2c0,20-9.9,30-29.8,30h-99c-19.8,0-29.6-10-29.6-30v-78.4h49.2v67h60.1v-64.5l-98.5-93.3
							c-7.1-6.9-10.7-15.6-10.7-26.3V95.7c0-20.2,9.9-30.3,29.6-30.3h99c19.9,0,29.8,9.9,29.8,29.8v73.5h-49.2v-62h-60.1v59.5
							l98.5,92.9c7.1,6.7,10.7,15.6,10.7,26.7V364.2z"/>
						<path class="st4" d="M1620.1,364.2c0,20-9.9,30-29.8,30h-106.7c-19.5,0-29.2-10-29.2-30V95.7c0-20.2,9.7-30.3,29.2-30.3h106.7
							c19.9,0,29.8,10.1,29.8,30.3V364.2z M1570.9,352.1V107.7h-67.4v244.4H1570.9z"/>
						<path class="st4" d="M1815.4,109h-85.1v97.3h72.7v42.7h-72.7v145.4h-49.2V65.5h134.3V109z"/>
						<path class="st4" d="M2007.7,109h-54.2v285.3h-49V109h-54.2V65.5h157.4V109z"/>
					</g>
				</g>
			</g>
			<g>
				<rect x="1883.5" y="670.5" class="st3" width="772.2" height="300.7"/>
				
					<text transform="matrix(1 0 0 1 1883.5121 960.7716)" class="st4" style="font-family:'AgencyFB-Bold'; font-size:380px; letter-spacing:19;">SOFT</text>
			</g>
		</g>
	</g>
</g>
<g id="Capa_2">
	<rect x="-3529.5" y="-3.5" class="st2" width="2039.4" height="486.5"/>
	<g>
		<g>
			<g>
				<path class="st0" d="M-3269.1,403.3h-18.5c-13.7,0-26-8.3-31.1-21l-74.7-185.1c-0.1-0.2-0.3-0.4-0.6-0.4l0,0
					c-0.4,0-0.6,0.3-0.6,0.6v172.3c0,18.5-15,33.6-33.6,33.6h-1.6c-18.5,0-33.6-15-33.6-33.6V109c0-18.5,15-33.6,33.6-33.6h21.1
					c13.7,0,26,8.3,31.1,21l73.4,182c0.1,0.2,0.3,0.4,0.6,0.4h0.3c0.4,0,0.6-0.3,0.6-0.6V109c0-18.5,15-33.6,33.6-33.6l0,0
					c18.5,0,33.6,15,33.6,33.6v260.8C-3235.5,388.3-3250.6,403.3-3269.1,403.3z"/>
				<path class="st0" d="M-2635.6,75.9L-2635.6,75.9c22.6,0,38.9,21.6,32.8,43.3l-73.1,259.2c-4.1,14.7-17.5,24.8-32.8,24.8h-16.1
					c-15.2,0-28.6-10.1-32.8-24.7l-74.1-259.2c-6.2-21.8,10.1-43.4,32.8-43.4h2.9c15.6,0,29.3,10.6,33.1,25.8l13.8,55.3
					c8.6,34.3,57.1,34.5,66,0.3l14.5-55.9C-2664.6,86.4-2651.1,75.9-2635.6,75.9z"/>
				<path class="st0" d="M-2403.5,403.3h-15.9c-12,0-22.4-8.4-24.9-20.2l-2.3-10.8c-2.5-11.8-12.9-20.2-24.9-20.2h-45.4
					c-11.9,0-22.1,8.2-24.8,19.7l-2.7,11.7c-2.7,11.5-13,19.7-24.8,19.7h-15.2c-16.9,0-29.2-16.2-24.5-32.5l79-276.4
					c3.1-10.9,13.1-18.5,24.5-18.5h32.7c11.7,0,21.9,7.9,24.7,19.3l69.3,276.4C-2374.7,387.7-2386.9,403.3-2403.5,403.3z
					 M-2467.1,268.7l-22.6-112.1c-0.1-0.3-0.3-0.5-0.6-0.5l0,0c-0.3,0-0.6,0.2-0.7,0.5l-25.9,111.4c-3.7,16,8.4,31.3,24.8,31.3l0,0
					C-2476,299.2-2463.9,284.5-2467.1,268.7z"/>
			</g>
			<g>
				<circle class="st0" cx="-3024" cy="239.4" r="164.4"/>
				<circle class="st1" cx="-2962.6" cy="159.1" r="41.1"/>
			</g>
		</g>
		<g>
			<g>
				<path class="st1" d="M-2170.2,373.7c0,20-9.9,30-29.8,30h-99c-19.8,0-29.6-10-29.6-30v-78.4h49.2v67h60.1v-64.5l-98.5-93.3
					c-7.1-6.9-10.7-15.6-10.7-26.3v-73.1c0-20.2,9.9-30.3,29.6-30.3h99c19.9,0,29.8,9.9,29.8,29.8v73.5h-49.2v-62h-60.1v59.5
					l98.5,92.9c7.1,6.7,10.7,15.6,10.7,26.7V373.7z"/>
				<path class="st1" d="M-1943.8,373.7c0,20-9.9,30-29.8,30h-106.7c-19.5,0-29.2-10-29.2-30V105.2c0-20.2,9.7-30.3,29.2-30.3h106.7
					c19.9,0,29.8,10.1,29.8,30.3V373.7z M-1993,361.5V117.2h-67.4v244.4H-1993z"/>
				<path class="st1" d="M-1748.6,118.4h-85.1v97.3h72.7v42.7h-72.7v145.4h-49.2V74.9h134.3V118.4z"/>
				<path class="st1" d="M-1556.2,118.4h-54.2v285.3h-49V118.4h-54.2V74.9h157.4V118.4z"/>
			</g>
		</g>
	</g>
</g>
</svg>
